<svg width="46" height="82" viewBox="0 0 46 82" fill="none" xmlns="http://www.w3.org/2000/svg">
<path d="M32.1631 80.4617C35.9498 80.0579 41.0363 79.4035 44.6567 78.3731M44.6567 78.3731C45.0739 78.2546 43.2983 75.5264 43.2058 75.4076C41.1796 72.7986 38.8742 70.5348 36.4751 68.2781M44.6567 78.3731C24.099 75.9978 9.26171 61.2456 8.924 46.4958C8.89052 45.0339 8.85561 43.4428 8.96247 41.8554M8.96247 41.8554C9.13263 39.3274 9.66232 36.809 11.1298 34.8375C12.4843 33.0181 15.0152 31.2186 17.3694 31.5169C21.7673 32.0743 23.0353 37.8156 20.0489 40.8712C17.4247 43.5565 11.9148 44.1094 8.96247 41.8554ZM8.96247 41.8554C8.90019 41.8078 8.83905 41.759 8.7791 41.709C-5.69039 29.6283 2.6242 9.08473 16.1994 1.76105" stroke="#A6D8D2" stroke-width="2.34877" stroke-miterlimit="1.5" stroke-linecap="round" stroke-linejoin="round"/>
</svg>
