<svg width="30" height="30" viewBox="0 0 30 30" fill="none" xmlns="http://www.w3.org/2000/svg">
<circle cx="15.0489" cy="15.2494" r="14.5624" fill="#F9F9F9"/>
<path d="M17.8381 10.2935V9.37747C17.8381 9.13672 17.6385 8.93707 17.3977 8.93707C17.157 8.93707 16.9573 9.13672 16.9573 9.37747V10.2583H13.1405V9.37747C13.1405 9.13672 12.9409 8.93707 12.7002 8.93707C12.4594 8.93707 12.2598 9.13672 12.2598 9.37747V10.2935C10.6743 10.4403 9.90511 11.3857 9.78767 12.7891C9.77593 12.9593 9.91685 13.1003 10.0813 13.1003H20.0166C20.1869 13.1003 20.3278 12.9535 20.3102 12.7891C20.1927 11.3857 19.4235 10.4403 17.8381 10.2935Z" fill="url(#paint0_linear_17_3628)"/>
<path d="M19.1593 17.011C17.8616 17.011 16.8105 18.0621 16.8105 19.3598C16.8105 19.8002 16.9338 20.2171 17.1511 20.5694C17.5562 21.2505 18.302 21.7085 19.1593 21.7085C20.0166 21.7085 20.7623 21.2505 21.1675 20.5694C21.3847 20.2171 21.508 19.8002 21.508 19.3598C21.508 18.0621 20.457 17.011 19.1593 17.011ZM20.3748 19.1073L19.124 20.264C19.0418 20.3404 18.9303 20.3815 18.8246 20.3815C18.713 20.3815 18.6014 20.3404 18.5133 20.2523L17.932 19.671C17.7617 19.5007 17.7617 19.2188 17.932 19.0485C18.1023 18.8783 18.3842 18.8783 18.5545 19.0485L18.8363 19.3304L19.7758 18.4614C19.952 18.2969 20.2338 18.3087 20.3982 18.4848C20.5627 18.661 20.5509 18.937 20.3748 19.1073Z" fill="url(#paint1_linear_17_3628)"/>
<path d="M19.7465 13.9811H10.3514C10.0284 13.9811 9.76416 14.2453 9.76416 14.5683V18.1854C9.76416 19.947 10.645 21.1214 12.7001 21.1214H15.595C16.0002 21.1214 16.282 20.7279 16.1528 20.3463C16.0354 20.0057 15.9356 19.6299 15.9356 19.3598C15.9356 17.5806 17.3859 16.1302 19.1651 16.1302C19.3354 16.1302 19.5057 16.142 19.6701 16.1713C20.0224 16.2242 20.3395 15.9482 20.3395 15.5959V14.5741C20.3336 14.2453 20.0694 13.9811 19.7465 13.9811ZM13.4106 18.8959C13.2991 19.0016 13.1464 19.0662 12.9937 19.0662C12.8411 19.0662 12.6884 19.0016 12.5768 18.8959C12.4711 18.7843 12.4065 18.6317 12.4065 18.479C12.4065 18.3263 12.4711 18.1736 12.5768 18.0621C12.6355 18.0092 12.6943 17.9681 12.7706 17.9388C12.9879 17.8448 13.2462 17.8977 13.4106 18.0621C13.5163 18.1736 13.5809 18.3263 13.5809 18.479C13.5809 18.6317 13.5163 18.7843 13.4106 18.8959ZM13.4106 16.8407C13.3813 16.8642 13.3519 16.8877 13.3226 16.9112C13.2873 16.9347 13.2521 16.9523 13.2169 16.964C13.1816 16.9816 13.1464 16.9934 13.1112 16.9993C13.0701 17.0051 13.029 17.011 12.9937 17.011C12.8411 17.011 12.6884 16.9464 12.5768 16.8407C12.4711 16.7291 12.4065 16.5765 12.4065 16.4238C12.4065 16.2711 12.4711 16.1185 12.5768 16.0069C12.7119 15.8718 12.9174 15.8073 13.1112 15.8484C13.1464 15.8542 13.1816 15.866 13.2169 15.8836C13.2521 15.8953 13.2873 15.9129 13.3226 15.9364C13.3519 15.9599 13.3813 15.9834 13.4106 16.0069C13.5163 16.1185 13.5809 16.2711 13.5809 16.4238C13.5809 16.5765 13.5163 16.7291 13.4106 16.8407ZM15.4658 16.8407C15.3542 16.9464 15.2016 17.011 15.0489 17.011C14.8962 17.011 14.7436 16.9464 14.632 16.8407C14.5263 16.7291 14.4617 16.5765 14.4617 16.4238C14.4617 16.2711 14.5263 16.1185 14.632 16.0069C14.8551 15.7896 15.2485 15.7896 15.4658 16.0069C15.5715 16.1185 15.6361 16.2711 15.6361 16.4238C15.6361 16.5765 15.5715 16.7291 15.4658 16.8407Z" fill="url(#paint2_linear_17_3628)"/>
<defs>
<linearGradient id="paint0_linear_17_3628" x1="21.9095" y1="39.1588" x2="-4.25151" y2="33.9189" gradientUnits="userSpaceOnUse">
<stop offset="0.25249" stop-color="#59A49E"/>
<stop offset="0.637527" stop-color="#A6D8D2"/>
</linearGradient>
<linearGradient id="paint1_linear_17_3628" x1="22.2212" y1="51.1117" x2="10.1519" y2="50.1555" gradientUnits="userSpaceOnUse">
<stop offset="0.25249" stop-color="#59A49E"/>
<stop offset="0.637527" stop-color="#A6D8D2"/>
</linearGradient>
<linearGradient id="paint2_linear_17_3628" x1="9.97567" y1="20.9785" x2="22.3252" y2="4.31372" gradientUnits="userSpaceOnUse">
<stop offset="0.138287" stop-color="#FFB23F"/>
<stop offset="0.467052" stop-color="#FAD8A5"/>
</linearGradient>
</defs>
</svg>
