<svg width="30" height="30" viewBox="0 0 30 30" fill="none" xmlns="http://www.w3.org/2000/svg">
<circle cx="15.3458" cy="15.2494" r="14.5624" fill="#F9F9F9"/>
<path d="M18.2815 10.5518H12.4096C10.648 10.5518 9.47363 11.4326 9.47363 13.4878V15.5782C9.47363 15.7955 9.69677 15.9305 9.89054 15.8424C10.466 15.5782 11.1295 15.4784 11.8283 15.6017C13.3726 15.8777 14.5059 17.3104 14.4648 18.8782C14.4589 19.1248 14.4237 19.3656 14.3591 19.6005C14.3121 19.7825 14.4589 19.9528 14.6468 19.9528H18.2815C20.0431 19.9528 21.2175 19.072 21.2175 17.0168V13.4878C21.2175 11.4326 20.0431 10.5518 18.2815 10.5518ZM15.3456 16.7174C14.5352 16.7174 13.8776 16.0597 13.8776 15.2494C13.8776 14.439 14.5352 13.7814 15.3456 13.7814C16.1559 13.7814 16.8136 14.439 16.8136 15.2494C16.8136 16.0597 16.1559 16.7174 15.3456 16.7174ZM19.6027 16.4238C19.6027 16.6645 19.4031 16.8642 19.1623 16.8642C18.9216 16.8642 18.7219 16.6645 18.7219 16.4238V14.075C18.7219 13.8342 18.9216 13.6346 19.1623 13.6346C19.4031 13.6346 19.6027 13.8342 19.6027 14.075V16.4238Z" fill="url(#paint0_linear_17_3600)"/>
<path d="M11.2352 16.4238C9.93755 16.4238 8.88647 17.4748 8.88647 18.7725C8.88647 19.2129 9.00979 19.6298 9.22705 19.9822C9.63221 20.6633 10.3779 21.1213 11.2352 21.1213C12.0926 21.1213 12.8383 20.6633 13.2435 19.9822C13.4607 19.6298 13.584 19.2129 13.584 18.7725C13.584 17.4748 12.5329 16.4238 11.2352 16.4238ZM12.392 18.5788L11.1413 19.7355C11.0591 19.8119 10.9475 19.853 10.8418 19.853C10.7303 19.853 10.6187 19.8119 10.5306 19.7238L9.9493 19.1425C9.77901 18.9722 9.77901 18.6903 9.9493 18.52C10.1196 18.3498 10.4014 18.3498 10.5717 18.52L10.8536 18.8019L11.7931 17.9329C11.9692 17.7684 12.2511 17.7802 12.4155 17.9563C12.5799 18.1325 12.5682 18.4144 12.392 18.5788Z" fill="url(#paint1_linear_17_3600)"/>
<defs>
<linearGradient id="paint0_linear_17_3600" x1="9.70851" y1="19.7648" x2="26.5623" y2="0.582201" gradientUnits="userSpaceOnUse">
<stop offset="0.138287" stop-color="#FFB23F"/>
<stop offset="0.467052" stop-color="#FAD8A5"/>
</linearGradient>
<linearGradient id="paint1_linear_17_3600" x1="14.2972" y1="50.5245" x2="2.2279" y2="49.5682" gradientUnits="userSpaceOnUse">
<stop offset="0.25249" stop-color="#40B4A6"/>
<stop offset="0.637527" stop-color="#A6D8D2"/>
</linearGradient>
</defs>
</svg>
