<svg width="20" height="20" viewBox="0 0 20 20" fill="none" xmlns="http://www.w3.org/2000/svg">
<path d="M6.58802 9.48572H2.9161C2.97874 5.82946 3.69903 5.22661 5.94602 3.89563C6.20439 3.73905 6.29051 3.41022 6.13392 3.14403C5.98517 2.88566 5.64851 2.79954 5.39014 2.95612C2.74386 4.52197 1.82001 5.47714 1.82001 10.0259V14.2459C1.82001 15.5847 2.90827 16.6651 4.23924 16.6651H6.58802C7.96597 16.6651 9.00726 15.6238 9.00726 14.2459V11.8971C9.00726 10.527 7.96597 9.48572 6.58802 9.48572Z" fill="url(#paint0_linear_17_3737)"/>
<path d="M15.0593 9.48572H11.3874C11.45 5.82946 12.1703 5.22661 14.4173 3.89563C14.6757 3.73905 14.7618 3.41022 14.6052 3.14403C14.4486 2.88566 14.1198 2.79954 13.8536 2.95612C11.2073 4.52197 10.2834 5.47714 10.2834 10.0338V14.2537C10.2834 15.5925 11.3717 16.673 12.7027 16.673H15.0515C16.4294 16.673 17.4707 15.6317 17.4707 14.2537V11.905C17.4785 10.527 16.4372 9.48572 15.0593 9.48572Z" fill="url(#paint1_linear_17_3737)"/>
<defs>
<linearGradient id="paint0_linear_17_3737" x1="10.0984" y1="102.964" x2="-8.45189" y2="102.197" gradientUnits="userSpaceOnUse">
<stop offset="0.25249" stop-color="#40B4A6"/>
<stop offset="0.637527" stop-color="#A6D8D2"/>
</linearGradient>
<linearGradient id="paint1_linear_17_3737" x1="18.5619" y1="103.02" x2="0.0114497" y2="102.255" gradientUnits="userSpaceOnUse">
<stop offset="0.25249" stop-color="#40B4A6"/>
<stop offset="0.637527" stop-color="#A6D8D2"/>
</linearGradient>
</defs>
</svg>
