<svg width="25" height="25" viewBox="0 0 25 25" fill="none" xmlns="http://www.w3.org/2000/svg">
<path fill-rule="evenodd" clip-rule="evenodd" d="M19.2362 9.05539C11.6345 13.6637 10.354 14.2115 7.36185 11.5062C8.10379 14.0913 7.76481 15.9714 6.38196 17.8944C9.80459 16.8513 10.429 17.8043 12.1663 18.9971C11.0969 15.6208 12.5966 14.51 19.2362 9.05539Z" stroke="#FFB23F" stroke-width="1.40926" stroke-miterlimit="1.5" stroke-linecap="round" stroke-linejoin="round"/>
<path d="M16.3828 15.9206C16.4913 16.2752 16.5344 16.6518 16.6042 17.0154" stroke="#FFB23F" stroke-width="1.40926" stroke-miterlimit="1.5" stroke-linecap="round" stroke-linejoin="round"/>
<path d="M14.9531 18.2064C15.2348 18.1632 15.5193 18.0832 15.7977 18.0182" stroke="#FFB23F" stroke-width="1.40926" stroke-miterlimit="1.5" stroke-linecap="round" stroke-linejoin="round"/>
<path d="M16.9455 18.6838C16.9446 19.0321 17.007 19.4824 17.1165 19.8184" stroke="#FFB23F" stroke-width="1.40926" stroke-miterlimit="1.5" stroke-linecap="round" stroke-linejoin="round"/>
<path d="M17.8442 17.6803C18.2198 17.7107 18.6154 17.5592 18.9908 17.5124" stroke="#FFB23F" stroke-width="1.40926" stroke-miterlimit="1.5" stroke-linecap="round" stroke-linejoin="round"/>
<path d="M9.56073 6.01363C9.60136 6.41144 9.66878 6.80427 9.74775 7.19563" stroke="#FFB23F" stroke-width="1.40926" stroke-miterlimit="1.5" stroke-linecap="round" stroke-linejoin="round"/>
<path d="M7.99774 8.24497C8.29543 8.21832 8.58054 8.18136 8.87367 8.12793" stroke="#FFB23F" stroke-width="1.40926" stroke-miterlimit="1.5" stroke-linecap="round" stroke-linejoin="round"/>
<path d="M10.0625 8.84558C10.0687 9.2177 10.1428 9.61322 10.2183 9.97915" stroke="#FFB23F" stroke-width="1.40926" stroke-miterlimit="1.5" stroke-linecap="round" stroke-linejoin="round"/>
<path d="M11.003 7.82694C11.3419 7.74245 11.6554 7.62829 12.0059 7.58818" stroke="#FFB23F" stroke-width="1.40926" stroke-miterlimit="1.5" stroke-linecap="round" stroke-linejoin="round"/>
</svg>
